<svg xmlns="http://www.w3.org/2000/svg" viewBox="0 0 300 64" width="300" height="64" role="img" aria-labelledby="t3h">
  <title id="t3h">PsicoGuard — Conformidade NR-1</title>
  <defs>
    <linearGradient id="g3h" x1="0%" y1="0%" x2="100%" y2="100%">
      <stop offset="0%" stop-color="#15803D"/>
      <stop offset="100%" stop-color="#22C55E"/>
    </linearGradient>
  </defs>
  <!-- Leaf icon -->
  <path d="M32 4 C32 4 7 14 7 36 C7 51 18 59 32 61 C46 59 57 51 57 36 C57 14 32 4 32 4 Z" fill="url(#g3h)"/>
  <line x1="32" y1="16" x2="32" y2="56" stroke="rgba(255,255,255,0.35)" stroke-width="1.5" stroke-linecap="round"/>
  <path d="M13 36 L20 36 L23 27 L27 45 L31 36 L33 36 L36 29 L40 43 L44 36 L51 36"
        fill="none" stroke="white" stroke-width="2.2" stroke-linecap="round" stroke-linejoin="round"/>
  <!-- Wordmark -->
  <text x="74" y="40" font-family="'Inter','Segoe UI','Helvetica Neue',Arial,sans-serif" font-size="27" letter-spacing="-0.5">
    <tspan font-weight="700" fill="#15803D">Psico</tspan><tspan font-weight="300" fill="#16A34A">Guard</tspan>
  </text>
  <!-- Tagline -->
  <text x="75" y="55" font-family="'Segoe UI',Arial,sans-serif" font-size="9" fill="#9CA3AF" letter-spacing="2.5">CONFORMIDADE NR-1</text>
</svg>
