<svg xmlns="http://www.w3.org/2000/svg" viewBox="0 0 160 112" width="160" height="112" role="img" aria-label="PsicoGuard">
  <title>PsicoGuard</title>
  <rect x="0" y="0" width="160" height="112" rx="14" fill="#0F172A"/>
  <defs>
    <linearGradient id="g" x1="0%" y1="0%" x2="100%" y2="100%">
      <stop offset="0%" stop-color="#16A34A"/>
      <stop offset="100%" stop-color="#4ADE80"/>
    </linearGradient>
  </defs>
  <g transform="translate(48,4)">
    <path d="M32 4 C32 4 7 14 7 36 C7 51 18 59 32 61 C46 59 57 51 57 36 C57 14 32 4 32 4 Z" fill="url(#g)"/>
    <line x1="32" y1="16" x2="32" y2="56" stroke="rgba(255,255,255,0.35)" stroke-width="1.5" stroke-linecap="round"/>
    <path d="M13 36 L20 36 L23 27 L27 45 L31 36 L33 36 L36 29 L40 43 L44 36 L51 36"
          fill="none" stroke="white" stroke-width="2.2" stroke-linecap="round" stroke-linejoin="round"/>
  </g>
  <text x="80" y="93" text-anchor="middle" font-family="'Inter','Segoe UI','Helvetica Neue',Arial,sans-serif" font-size="24" letter-spacing="-0.5">
    <tspan font-weight="700" fill="#FFFFFF">Psico</tspan><tspan font-weight="300" fill="#86EFAC">Guard</tspan>
  </text>
  <text x="80" y="108" text-anchor="middle" font-family="'Segoe UI',Arial,sans-serif" font-size="8" fill="#475569" letter-spacing="2">CONFORMIDADE NR-1</text>
</svg>
