<svg xmlns="http://www.w3.org/2000/svg" viewBox="0 0 160 112" width="160" height="112" role="img" aria-label="PsicoGuard">
  <title>PsicoGuard</title>
  <defs>
    <linearGradient id="g" x1="0%" y1="0%" x2="100%" y2="100%">
      <stop offset="0%" stop-color="#0284c7"/>
      <stop offset="100%" stop-color="#0ea5e9"/>
    </linearGradient>
  </defs>
  <g transform="translate(48,4)">
    <circle cx="32" cy="32" r="29" fill="url(#g)"/>
    <g stroke="rgba(255,255,255,0.4)" stroke-width="1.5" fill="none">
      <line x1="32" y1="32" x2="49" y2="32"/>
      <line x1="32" y1="32" x2="37" y2="48"/>
      <line x1="32" y1="32" x2="18" y2="42"/>
      <line x1="32" y1="32" x2="18" y2="22"/>
      <line x1="32" y1="32" x2="37" y2="16"/>
      <line x1="49" y1="32" x2="37" y2="16"/>
      <line x1="49" y1="32" x2="37" y2="48"/>
      <line x1="37" y1="16" x2="18" y2="22"/>
      <line x1="37" y1="48" x2="18" y2="42"/>
      <line x1="18" y1="22" x2="18" y2="42"/>
    </g>
    <circle cx="49" cy="32" r="3" fill="white"/>
    <circle cx="37" cy="48" r="3" fill="white"/>
    <circle cx="18" cy="42" r="3" fill="white"/>
    <circle cx="18" cy="22" r="3" fill="white"/>
    <circle cx="37" cy="16" r="3" fill="white"/>
    <circle cx="32" cy="32" r="5.5" fill="white"/>
  </g>
  <text x="80" y="93" text-anchor="middle" font-family="'Inter','Segoe UI','Helvetica Neue',Arial,sans-serif" font-size="24" letter-spacing="-0.5">
    <tspan font-weight="700" fill="#0284c7">Psico</tspan><tspan font-weight="300" fill="#0ea5e9">Guard</tspan>
  </text>
  <text x="80" y="108" text-anchor="middle" font-family="'Segoe UI',Arial,sans-serif" font-size="8" fill="#9CA3AF" letter-spacing="2">CONFORMIDADE NR-1</text>
</svg>
