<svg xmlns="http://www.w3.org/2000/svg" viewBox="0 0 64 64" width="64" height="64" role="img" aria-label="PsicoGuard">
  <title>PsicoGuard</title>
  <circle cx="32" cy="32" r="29" fill="#0c3d66"/>
  <g stroke="rgba(255,255,255,0.4)" stroke-width="1.5" fill="none">
    <line x1="32" y1="32" x2="49" y2="32"/>
    <line x1="32" y1="32" x2="37" y2="48"/>
    <line x1="32" y1="32" x2="18" y2="42"/>
    <line x1="32" y1="32" x2="18" y2="22"/>
    <line x1="32" y1="32" x2="37" y2="16"/>
    <line x1="49" y1="32" x2="37" y2="16"/>
    <line x1="49" y1="32" x2="37" y2="48"/>
    <line x1="37" y1="16" x2="18" y2="22"/>
    <line x1="37" y1="48" x2="18" y2="42"/>
    <line x1="18" y1="22" x2="18" y2="42"/>
  </g>
  <circle cx="49" cy="32" r="3" fill="white"/>
  <circle cx="37" cy="48" r="3" fill="white"/>
  <circle cx="18" cy="42" r="3" fill="white"/>
  <circle cx="18" cy="22" r="3" fill="white"/>
  <circle cx="37" cy="16" r="3" fill="white"/>
  <circle cx="32" cy="32" r="5.5" fill="white"/>
</svg>
