<svg xmlns="http://www.w3.org/2000/svg" viewBox="0 0 300 64" width="300" height="64" role="img" aria-label="PsicoGuard">
  <title>PsicoGuard (branco — usar sobre fundo escuro)</title>
  <circle cx="32" cy="32" r="29" fill="none" stroke="#FFFFFF" stroke-width="2.5"/>
  <g stroke="rgba(255,255,255,0.45)" stroke-width="1.5" fill="none">
    <line x1="32" y1="32" x2="49" y2="32"/>
    <line x1="32" y1="32" x2="37" y2="48"/>
    <line x1="32" y1="32" x2="18" y2="42"/>
    <line x1="32" y1="32" x2="18" y2="22"/>
    <line x1="32" y1="32" x2="37" y2="16"/>
    <line x1="49" y1="32" x2="37" y2="16"/>
    <line x1="49" y1="32" x2="37" y2="48"/>
    <line x1="37" y1="16" x2="18" y2="22"/>
    <line x1="37" y1="48" x2="18" y2="42"/>
    <line x1="18" y1="22" x2="18" y2="42"/>
  </g>
  <circle cx="49" cy="32" r="3" fill="white"/>
  <circle cx="37" cy="48" r="3" fill="white"/>
  <circle cx="18" cy="42" r="3" fill="white"/>
  <circle cx="18" cy="22" r="3" fill="white"/>
  <circle cx="37" cy="16" r="3" fill="white"/>
  <circle cx="32" cy="32" r="5.5" fill="white"/>
  <text x="74" y="40" font-family="'Inter','Segoe UI','Helvetica Neue',Arial,sans-serif" font-size="27" letter-spacing="-0.5">
    <tspan font-weight="700" fill="#FFFFFF">Psico</tspan><tspan font-weight="300" fill="rgba(255,255,255,0.75)">Guard</tspan>
  </text>
  <text x="75" y="55" font-family="'Segoe UI',Arial,sans-serif" font-size="9" fill="rgba(255,255,255,0.45)" letter-spacing="2.5">CONFORMIDADE NR-1</text>
</svg>
